Coordinates
version=1
nRows=5
nColumns=40
inDegrees=yes

Units are S.I. units (second, meters, Newtons, ...)
If the header above contains a line with 'inDegrees', this indicates whether rotational values are in degrees (yes) or radians (no).

endheader
time	pelvis_tilt	pelvis_list	pelvis_rotation	pelvis_tx	pelvis_ty	pelvis_tz	hip_flexion_r	hip_adduction_r	hip_rotation_r	knee_angle_r	knee_angle_r_beta	ankle_angle_r	subtalar_angle_r	mtp_angle_r	hip_flexion_l	hip_adduction_l	hip_rotation_l	knee_angle_l	knee_angle_l_beta	ankle_angle_l	subtalar_angle_l	mtp_angle_l	lumbar_extension	lumbar_bending	lumbar_rotation	arm_flex_r	arm_add_r	arm_rot_r	elbow_flex_r	pro_sup_r	wrist_flex_r	wrist_dev_r	arm_flex_l	arm_add_l	arm_rot_l	elbow_flex_l	pro_sup_l	wrist_flex_l	wrist_dev_l
      4.00500000	    -32.56606353	     -2.73246666	     -0.61287109	     -0.47199364	      0.69489655	     -0.94492227	     86.38185069	    -13.16632828	      0.66185668	     90.22062218	      1.57464691	     34.93456137	      0.00000000	      0.00000000	     89.94991203	    -18.53821216	      9.14353646	     88.69505617	      1.54802076	     32.03024052	      0.00000000	      0.00000000	    -17.35978876	      2.24321736	      4.36310539	      8.48936161	    -55.17326907	     71.79901990	     93.36818322	     85.71080292	      0.00000000	      0.00000000	    -17.63149404	    -47.22390169	     36.53891883	     98.08079497	     87.61095164	      0.00000000	      0.00000000
      4.01000000	    -32.66408559	     -2.77130395	     -0.62906113	     -0.47197944	      0.69465494	     -0.94476584	     86.46131944	    -13.14206955	      0.60129783	     90.21030341	      1.57446681	     35.03354316	      0.00000000	      0.00000000	     90.08619303	    -18.58548040	      9.16844161	     88.70616805	      1.54821470	     31.96284196	      0.00000000	      0.00000000	    -17.25174090	      2.28273189	      4.03522580	      9.31637288	    -55.08920817	     72.63117040	     93.30237936	     86.40556727	      0.00000000	      0.00000000	    -18.52855651	    -46.97753249	     35.52542829	     98.10970163	     87.40565363	      0.00000000	      0.00000000
      4.01500000	    -32.71108140	     -2.75253645	     -0.63249669	     -0.47198554	      0.69445893	     -0.94475505	     86.54640790	    -13.13015466	      0.66804547	     90.25115880	      1.57517987	     34.89382022	      0.00000000	      0.00000000	     90.14728228	    -18.55000792	      9.19857421	     88.73095255	      1.54864727	     31.88606867	      0.00000000	      0.00000000	    -17.16554184	      2.26556328	      4.39099980	      8.38253071	    -55.20392194	     71.81299093	     93.44709045	     84.95153974	      0.00000000	      0.00000000	    -17.69598249	    -47.19109143	     36.47492325	     98.05563443	     87.76495175	      0.00000000	      0.00000000
      4.02000000	    -32.72924985	     -2.77130848	     -0.61412662	     -0.47188449	      0.69435241	     -0.94474398	     86.55835494	    -13.12900977	      0.66311875	     90.27635140	      1.57561957	     35.01969810	      0.00000000	      0.00000000	     90.16597773	    -18.52929655	      9.23546733	     88.73874065	      1.54878320	     31.99902810	      0.00000000	      0.00000000	    -17.17956549	      2.28857197	      4.09315992	      8.93963602	    -55.11450809	     72.15897985	     93.35114218	     86.43031174	      0.00000000	      0.00000000	    -18.47904094	    -46.96210731	     35.53773983	     98.15808405	     87.43721126	      0.00000000	      0.00000000
      4.02500000	    -32.69646643	     -2.73513016	     -0.65649651	     -0.47169666	      0.69432414	     -0.94459866	     86.53326114	    -13.09517439	      0.68951020	     90.29719837	      1.57598342	     35.04919452	      0.00000000	      0.00000000	     90.11366629	    -18.59060831	      9.18847940	     88.77500344	      1.54941610	     32.05921431	      0.00000000	      0.00000000	    -17.19787662	      2.24085764	      3.97251811	      9.41349108	    -55.06752718	     72.70745805	     93.28884030	     86.33870013	      0.00000000	      0.00000000	    -18.78012786	    -46.88642798	     35.22820105	     98.17503440	     87.43460289	      0.00000000	      0.00000000
